<svg width="30" height="30" viewBox="0 0 30 30" fill="none" xmlns="http://www.w3.org/2000/svg">
<circle cx="15" cy="15" r="15" fill="#ED8100"/>
<path d="M14.3533 18.2699C13.0706 18.1405 11.914 17.835 10.9239 17.0862C10.801 16.993 10.6741 16.9032 10.562 16.7991C10.1286 16.3966 10.085 15.9356 10.4279 15.4606C10.7213 15.0541 11.2138 14.9453 11.7257 15.1787C11.8248 15.224 11.9192 15.2805 12.0097 15.3411C13.8551 16.5672 16.3902 16.6011 18.2425 15.3962C18.426 15.2602 18.6222 15.1493 18.8495 15.0926C19.2916 14.9829 19.7038 15.1399 19.9411 15.5139C20.2121 15.941 20.2086 16.3579 19.8747 16.6895C19.3625 17.1979 18.7464 17.5658 18.0619 17.8225C17.4147 18.0651 16.7057 18.1873 16.0041 18.2684C16.11 18.3798 16.1599 18.4346 16.2261 18.4989C17.1788 19.4246 18.1357 20.3464 19.0854 21.2749C19.4089 21.5912 19.4765 21.9835 19.2983 22.3515C19.1036 22.7537 18.6676 23.0182 18.2401 22.9899C17.9692 22.9718 17.758 22.8415 17.5703 22.6586C16.8513 21.9591 16.1188 21.2724 15.4144 20.5595C15.2094 20.3522 15.1108 20.3915 14.9298 20.5714C14.2065 21.2915 13.4714 22.0004 12.732 22.7054C12.4 23.0219 12.0048 23.0789 11.6198 22.8981C11.2105 22.7062 10.95 22.3022 10.9701 21.8962C10.984 21.6216 11.1237 21.4118 11.3186 21.2236C12.2615 20.3132 13.2018 19.4005 14.1424 18.4885C14.2046 18.4279 14.2627 18.3635 14.3533 18.2699Z" fill="white"/>
<path d="M15.1347 15.0984C12.8464 15.0909 10.97 13.2565 10.9833 11.0402C10.9965 8.79953 12.8741 6.99382 15.185 7.00002C17.5005 7.00605 19.359 8.83774 19.3474 11.1017C19.3357 13.3135 17.4463 15.1061 15.1347 15.0984ZM17.2144 11.0456C17.2104 9.94519 16.3041 9.06915 15.1683 9.06814C14.0231 9.06697 13.1086 9.95893 13.1174 11.0694C13.1259 12.1656 14.04 13.0355 15.1789 13.0315C16.3143 13.0276 17.2182 12.1459 17.2144 11.0456Z" fill="white"/>
</svg>
