<svg width="20" height="20" viewBox="0 0 20 20" fill="none" xmlns="http://www.w3.org/2000/svg">
<path d="M19.7864 18.8571L13.8206 12.87C14.9636 11.5014 15.6583 9.75002 15.6583 7.85714C15.6583 3.57141 12.0996 0 7.82911 0C3.55863 0 0 3.57149 0 7.85722C0 12.1429 3.55871 15.7144 7.82919 15.7144C9.67967 15.7144 11.3936 15.0429 12.7459 13.9344L18.6477 19.8572C18.79 20 18.9323 20 19.217 20C19.5017 20 19.644 20 19.7864 19.8572C20.0712 19.5715 20.0712 19.1429 19.7864 18.8571V18.8571ZM7.82919 14.2858C4.27048 14.2858 1.42355 11.4287 1.42355 7.8573C1.42355 4.28589 4.27048 1.42879 7.82919 1.42879C11.3879 1.42879 14.2348 4.28589 14.2348 7.8573C14.2348 11.4287 11.3879 14.2858 7.82919 14.2858Z" fill="#333E50"/>
</svg>
