<svg width="30" height="30" viewBox="0 0 30 30" fill="none" xmlns="http://www.w3.org/2000/svg">
<circle cx="15" cy="15" r="15" fill="#47A6E2"/>
<path d="M7.28261 14.5381L10.9693 15.8712L12.3963 20.3174C12.4876 20.6021 12.847 20.7074 13.0856 20.5184L15.1406 18.8953C15.3561 18.7253 15.6629 18.7168 15.888 18.8751L19.5946 21.4823C19.8498 21.662 20.2113 21.5265 20.2753 21.2277L22.9906 8.57403C23.0604 8.24768 22.7295 7.97542 22.4087 8.09561L7.27829 13.7505C6.9049 13.89 6.90815 14.4022 7.28261 14.5381ZM12.1663 15.1616L19.3716 10.8622C19.5011 10.7852 19.6343 10.9548 19.5231 11.0547L13.5767 16.4099C13.3677 16.5984 13.2329 16.8507 13.1947 17.1245L12.9921 18.5788C12.9653 18.773 12.6837 18.7922 12.6284 18.6043L11.8494 15.9523C11.7602 15.6498 11.8902 15.3267 12.1663 15.1616Z" fill="white"/>
</svg>
