<svg width="12" height="16" viewBox="0 0 12 16" fill="none" xmlns="http://www.w3.org/2000/svg">
<path d="M6.66666 0C3.90966 0 1.66666 2.43592 1.66666 5.43008C1.66666 6.63328 2.31892 8.46313 3.71939 11.1887C4.67504 13.0484 5.62628 14.6192 5.66641 14.6854L6.35395 15.8172C6.42327 15.9313 6.54072 16 6.66666 16C6.79259 16 6.91004 15.9313 6.97936 15.8172L7.66687 14.6855C7.70661 14.62 8.65093 13.0628 9.61393 11.1887C11.0144 8.46325 11.6667 6.63341 11.6667 5.43008C11.6667 2.43592 9.42365 0 6.66666 0ZM8.95968 10.7921C8.01009 12.64 7.08069 14.1729 7.04152 14.2373L6.66666 14.8543L6.29191 14.2374C6.25253 14.1725 5.316 12.6259 4.37363 10.7921C3.07458 8.26393 2.4159 6.45986 2.4159 5.43008C2.4159 2.8846 4.32277 0.813699 6.66666 0.813699C9.01054 0.813699 10.9174 2.8846 10.9174 5.43008C10.9174 6.45999 10.2587 8.264 8.95968 10.7921Z" fill="#333E50"/>
<path d="M5.92407 2.3855C4.39546 2.3855 3.15186 3.73611 3.15186 5.39619C3.15186 7.05626 4.39546 8.40687 5.92407 8.40687C7.45269 8.40687 8.69629 7.05626 8.69629 5.39619C8.69629 3.73611 7.45269 2.3855 5.92407 2.3855ZM5.92407 7.59318C4.80859 7.59318 3.9011 6.60762 3.9011 5.39619C3.9011 4.18475 4.80859 3.1992 5.92407 3.1992C7.03958 3.1992 7.94704 4.18475 7.94704 5.39619C7.94704 6.60762 7.03958 7.59318 5.92407 7.59318Z" fill="#333E50"/>
</svg>
