<svg width="188" height="40" viewBox="0 0 188 40" fill="none" xmlns="http://www.w3.org/2000/svg">
<path d="M65.6297 27.7999H58.5515V12.2003H65.3408C68.6632 12.2003 70.4929 14.0629 70.4929 16.7638C70.4929 18.5333 69.1928 19.5577 68.7595 19.8837C69.4336 20.3028 70.7818 21.0478 70.7818 23.2364C70.6855 26.2166 68.5187 27.7999 65.6297 27.7999ZM65.1 15.6928H62.6443V18.2073H65.1C66.1593 18.2073 66.4964 17.5554 66.4964 16.95C66.4964 16.3447 66.1593 15.6928 65.1 15.6928ZM65.2926 21.56H62.5962V24.354H65.2926C66.3519 24.354 66.7853 23.6089 66.7853 23.0036C66.7853 22.4448 66.3519 21.56 65.2926 21.56Z" fill="#2396DC"/>
<path d="M85.5159 27.7999L84.7455 25.425H79.7859L79.0155 27.7999H74.8264L80.6527 12.2003H83.6862L89.5124 27.7999H85.5159ZM82.3861 18.1142L80.8934 22.2585H83.6862L82.3861 18.1142Z" fill="#2396DC"/>
<path d="M103.476 27.7999L98.324 19.9768V27.7999H94.3275V12.2003H97.7943L102.946 20.0234V12.2003H106.943V27.7999H103.476Z" fill="#2396DC"/>
<path d="M122.207 27.8464L118.451 21.4203L117.055 22.957V27.8464H113.154V12.2469H117.055V17.7416L121.773 12.2003H126.637L121.148 18.6264L126.829 27.893H122.207V27.8464Z" fill="#2396DC"/>
<path d="M131.5 27.7999V12.2003H135.4V27.7999H131.5Z" fill="#2396DC"/>
<path d="M149.894 27.7999L147.004 21.9791H145.704V27.7999H141.804V12.2003H148.16C151.723 12.2003 153.649 14.6217 153.649 17.276C153.649 19.3714 152.253 20.7219 151.049 21.3272L154.516 27.7999H149.894ZM148.016 15.6928H145.753V18.8127H148.016C149.075 18.8127 149.749 18.0676 149.749 17.2294C149.749 16.4378 149.027 15.6928 148.016 15.6928Z" fill="#2396DC"/>
<path d="M169.443 26.2631C168.287 27.3806 166.939 27.9394 165.013 27.9394C163.087 27.9394 161.69 27.3341 160.583 26.2631C158.946 24.6798 158.946 22.6309 158.946 20.0232C158.946 17.4156 158.946 15.3667 160.583 13.7834C161.739 12.6658 163.087 12.1071 165.013 12.1071C166.939 12.1071 168.335 12.7124 169.443 13.7834C171.08 15.3667 171.08 17.4156 171.08 20.0232C171.08 22.6309 171.08 24.6798 169.443 26.2631ZM166.554 16.2514C166.313 15.9254 165.687 15.5995 164.965 15.5995C164.242 15.5995 163.665 15.9254 163.376 16.2514C163.039 16.6705 162.75 17.2759 162.75 20.1164C162.75 23.0034 162.991 23.4691 163.376 23.8882C163.616 24.2142 164.242 24.5401 164.965 24.5401C165.687 24.5401 166.265 24.2142 166.554 23.8882C166.891 23.4691 167.18 22.9569 167.18 20.1164C167.18 17.2759 166.891 16.6705 166.554 16.2514Z" fill="#2396DC"/>
<path d="M181.48 27.9395C179.025 27.9395 177.051 27.5204 175.365 25.9372L177.869 23.5157C178.736 24.3539 180.228 24.6333 181.432 24.6333C183.021 24.6333 183.792 24.1211 183.792 23.1898C183.792 22.8638 183.695 22.5379 183.455 22.2585C183.262 22.0722 182.925 21.9325 182.395 21.8394L180.469 21.6065C179.073 21.4203 177.965 20.9546 177.243 20.2561C176.473 19.5111 176.088 18.4866 176.088 17.1362C176.088 14.2491 178.254 12.1537 182.01 12.1537C184.369 12.1537 186.103 12.6659 187.403 14.0163L184.899 16.4377C184.032 15.5996 183.166 15.5064 181.866 15.5064C180.469 15.5064 179.94 16.2515 179.94 16.95C179.94 17.1362 180.036 17.4622 180.277 17.695C180.469 17.8813 180.806 18.1141 181.432 18.1141L183.358 18.3469C184.851 18.5332 185.862 18.9989 186.488 19.6042C187.355 20.4424 187.692 21.56 187.692 23.0501C187.74 26.2631 184.851 27.9395 181.48 27.9395Z" fill="#2396DC"/>
<path d="M4.47802 19.9767C4.47802 11.3155 11.7006 4.28405 20.7048 4.28405C27.5904 4.28405 33.4166 8.4284 35.776 14.2491L39.2429 11.1292C35.8242 4.56345 28.7942 0 20.6567 0C9.24495 0 0 8.94063 0 19.9767C0 21.3271 0.192603 22.5844 0.433357 23.9348L4.52617 20.3027C4.52617 20.2095 4.47802 20.0233 4.47802 19.9767Z" fill="#7BC057"/>
<path d="M43.5765 11.3621L40.5431 11.5949L25.5682 24.447L6.6449 19.7905L0.770508 25.4249C3.2262 33.8533 11.2192 40 20.7049 40C32.1167 40 41.4579 31.0594 41.4579 19.9302C41.4579 19.3248 41.4579 18.766 41.3616 18.1607L36.7391 22.305C35.5835 29.8952 28.7943 35.716 20.7049 35.716C14.0601 35.716 8.42648 31.9441 5.87449 26.4494L7.60792 24.6799L27.2053 29.4761L36.7873 20.8149L40.9764 17.0431L43.4803 14.6217L43.5765 11.3621Z" fill="#2396DC"/>
<path d="M14.4934 20.5355L10.1117 19.4645L16.6602 13.1316L19.2603 12.9453L19.164 15.7393L14.4934 20.5355Z" fill="#7BC057"/>
<path d="M23.979 22.5844L19.5491 21.5599L28.7459 12.3865L31.3942 12.2933L31.2979 14.9942L23.979 22.5844Z" fill="#7BC057"/>
</svg>
