<svg width="30" height="30" viewBox="0 0 30 30" fill="none" xmlns="http://www.w3.org/2000/svg">
<circle cx="15" cy="15" r="15" fill="#51B4EF"/>
<path d="M23 10.1703C22.4111 10.4368 21.7792 10.6175 21.1153 10.6982C21.7932 10.2836 22.3121 9.6261 22.5581 8.84501C21.9222 9.22891 21.2203 9.50766 20.4724 9.65878C19.8736 9.00635 19.0217 8.59998 18.0769 8.59998C16.2642 8.59998 14.7945 10.1009 14.7945 11.951C14.7945 12.2134 14.8235 12.4696 14.8795 12.7147C12.152 12.5748 9.73347 11.2403 8.11477 9.21257C7.83182 9.70675 7.67085 10.2826 7.67085 10.8973C7.67085 12.0602 8.25075 13.0863 9.13059 13.6867C8.59268 13.6683 8.08677 13.5172 7.64387 13.266V13.3079C7.64387 14.9313 8.77566 16.2862 10.2764 16.5945C10.0014 16.6701 9.71148 16.712 9.41153 16.712C9.19959 16.712 8.99462 16.6905 8.79365 16.6497C9.21156 17.9821 10.4234 18.951 11.8591 18.9776C10.7363 19.8761 9.32055 20.4101 7.78285 20.4101C7.51791 20.4101 7.25694 20.3938 7 20.3642C8.45273 21.3168 10.1774 21.8722 12.0311 21.8722C18.0689 21.8722 21.3693 16.7651 21.3693 12.3359L21.3583 11.902C22.0032 11.4323 22.5611 10.8421 23 10.1703Z" fill="white"/>
</svg>
