<svg width="30" height="30" viewBox="0 0 30 30" fill="none" xmlns="http://www.w3.org/2000/svg">
<circle cx="15" cy="15" r="15" fill="#4F7599"/>
<path fill-rule="evenodd" clip-rule="evenodd" d="M20.7703 15.9953C21.301 16.5169 21.8612 17.0077 22.3372 17.5819C22.5475 17.8371 22.7466 18.1004 22.8989 18.3965C23.1147 18.8175 22.9192 19.2807 22.5442 19.3058L20.2133 19.3048C19.6121 19.355 19.1325 19.1114 18.7293 18.6976C18.4066 18.3667 18.1077 18.0146 17.7974 17.6725C17.6702 17.5327 17.537 17.4011 17.3779 17.2972C17.0597 17.0892 16.7835 17.1529 16.6017 17.487C16.4165 17.8268 16.3745 18.203 16.3563 18.5817C16.3313 19.1342 16.1654 19.2794 15.6141 19.3047C14.4358 19.3607 13.3175 19.1812 12.2787 18.5829C11.3628 18.0554 10.6526 17.3108 10.0345 16.4677C8.83089 14.8262 7.90919 13.0224 7.08081 11.1681C6.89434 10.7503 7.03071 10.526 7.48864 10.5181C8.24905 10.5032 9.00936 10.5043 9.77067 10.517C10.0797 10.5216 10.2843 10.7 10.4037 10.9939C10.8151 12.0122 11.3185 12.981 11.9504 13.879C12.1186 14.1181 12.2902 14.3572 12.5346 14.5255C12.8049 14.7118 13.0107 14.65 13.1378 14.3469C13.2185 14.1547 13.2539 13.9477 13.2721 13.7419C13.3323 13.0337 13.3402 12.3267 13.2346 11.621C13.1697 11.1806 12.9233 10.8954 12.4867 10.8121C12.2639 10.7696 12.2971 10.6862 12.4049 10.5581C12.5923 10.3374 12.7685 10.2 13.1198 10.2H15.7541C16.1688 10.2823 16.2609 10.4699 16.3177 10.8899L16.3199 13.8355C16.3154 13.9981 16.4006 14.4806 16.6916 14.5883C16.9245 14.6649 17.078 14.4774 17.2177 14.3287C17.8484 13.6549 18.2986 12.8585 18.7007 12.0339C18.8792 11.6713 19.0327 11.2948 19.1814 10.9185C19.2916 10.6393 19.4645 10.5019 19.7769 10.508L22.3122 10.5103C22.3874 10.5103 22.4635 10.5114 22.5363 10.524C22.9635 10.5973 23.0806 10.7823 22.9486 11.2022C22.7407 11.8611 22.3362 12.4101 21.9407 12.9618C21.5179 13.5507 21.0657 14.1194 20.6464 14.7118C20.2611 15.2528 20.2917 15.5255 20.7703 15.9953Z" fill="white"/>
</svg>
